<svg xmlns="http://www.w3.org/2000/svg" viewBox="0 0 800 500"><rect width="800" height="500" fill="white"/><g stroke="#263238" stroke-width="6" fill="#78a943"><ellipse cx="390" cy="260" rx="190" ry="105"/><ellipse cx="535" cy="190" rx="105" ry="80"/><circle cx="570" cy="160" r="22" fill="#d8c55d"/><circle cx="575" cy="157" r="9" fill="#111"/><path d="M250 300 Q120 350 145 420 Q240 410 315 330"/><path d="M500 300 Q620 350 670 410 Q590 430 475 340"/><path d="M300 185 Q180 120 120 210 Q205 260 320 245"/></g><g fill="#4f6f2e"><circle cx="330" cy="235" r="12"/><circle cx="395" cy="205" r="10"/><circle cx="455" cy="250" r="13"/><circle cx="505" cy="210" r="9"/><circle cx="285" cy="280" r="8"/></g></svg>